# xmcd
#
# Track frame offsets:
#	150
#	20678
#	35412
#	50006
#	62897
#	74818
#	86173
#	101826
#	118228
#	133533
#	146539
#	162150
#	180067
#
# Disc length: 2638 seconds
#
# Revision: 0
# Processed by: cddbd v1.5.1PL2 Copyright (c) Steve Scherf et al.
# Submitted via: audiograbber 1.81.02
#
DISCID=bf0a4c0d
DTITLE=Various Artist - VOICES OF WORSHIP - WORSHIP GOD CD1
DYEAR=2006
DGENRE=Christian Rock
TTITLE0=Awake Awake O Zion
TTITLE1=To Be In Your Presence (My Desire)
TTITLE2=Therefore The Redeemed Of The Lord
TTITLE3=All Heaven Declares
TTITLE4=Abba Father
TTITLE5=God Of Mercy (Show Mercy)
TTITLE6=Jesus We Enthrone You
TTITLE7=When The Music Fades (The Heart Of  Worship)
TTITLE8=Be Still (The Holy One Is Here)
TTITLE9=You Make Your Face To Shine On Me
TTITLE10=Light Of The World (Here I Am To Worship)
TTITLE11=With My Whole Heart
TTITLE12=Go Tell It On The Mountain
EXTD=Erhältlich unter www.gerth.de
EXTT0=
EXTT1=
EXTT2=
EXTT3=
EXTT4=
EXTT5=
EXTT6=
EXTT7=
EXTT8=
EXTT9=
EXTT10=
EXTT11=
EXTT12=
PLAYORDER=
